<?xml version="1.0" encoding="utf-8"?>
<!-- Generator: Adobe Illustrator 28.0.0, SVG Export Plug-In . SVG Version: 6.00 Build 0)  -->
<svg version="1.1" id="Layer_2" xmlns="http://www.w3.org/2000/svg" xmlns:xlink="http://www.w3.org/1999/xlink" x="0px" y="0px"
	 viewBox="0 0 105.6 103.9" style="enable-background:new 0 0 105.6 103.9;" xml:space="preserve">
<style type="text/css">
	
		.st0{fill-rule:evenodd;clip-rule:evenodd;fill:#E8E8E8;stroke:#262626;stroke-width:2;stroke-linecap:round;stroke-linejoin:round;stroke-miterlimit:10;}
</style>
<path id="roundness_0.95_00000109031206131429363210000007986831814368140971_" class="st0" d="M80.8,4.8c-9-3.4-16.2-3.3-30.3-2.9
	C37.1,2.2,30.3,2.5,23.7,5.8C21.2,7,13.6,10.9,8.2,19.3c-3.8,6-4.9,11.8-5.8,16.4c-0.3,1.6-1.3,7.1-1,14.5c0.4,8.5,2,9.3,2.9,20.3
	c0.5,5.9,0.1,6.9,1,10.6c0.7,2.9,2,8.4,5.8,12.6c0.9,1,4.7,4.9,15.5,6.8c13.3,2.3,24.1-0.9,30.9-2.9c7.8-2.3,17.2-5.2,26.8-13.2
	c4.4-3.7,12.6-10.8,16.7-23c3.7-10.7,2.3-19.7,1-28.6c-1.2-7.7-2.1-13.3-6.5-18.7C91.1,8.8,85.6,6.6,80.8,4.8z"/>
</svg>
